<?xml version="1.0" encoding="UTF-8"?>
<svg id="katman_2" data-name="katman 2" xmlns="http://www.w3.org/2000/svg" viewBox="0 0 358.2 107.18">
  <defs>
    <style>
      .cls-1 {
        fill: #ea4626;
      }

      .cls-2 {
        fill: #ebebeb;
      }

      .cls-3 {
        fill: #fff;
      }
    </style>
  </defs>
  <g id="katman_2-2" data-name="katman 2">
    <g>
      <circle class="cls-1" cx="223.14" cy="40.02" r="17.01"/>
      <path class="cls-2" d="M25.18,18.78c2.7-1.45,5.88-2.17,9.55-2.17,4.31,0,8.22,1.13,11.72,3.38s6.27,5.47,8.3,9.65c2.03,4.18,3.04,9.07,3.04,14.66s-1.01,10.5-3.04,14.71-4.79,7.45-8.3,9.7-7.41,3.38-11.72,3.38c-3.67,0-6.85-.72-9.55-2.17s-4.79-3.46-6.27-6.03v7.53H0V.03h18.91v24.79c1.48-2.57,3.57-4.58,6.27-6.03h0ZM35.74,36.05c-1.9-1.96-4.23-2.94-6.99-2.94s-5.1,1-6.99,2.99c-1.9,1.99-2.85,4.73-2.85,8.2s.95,6.3,2.85,8.3c1.9,1.99,4.23,2.99,6.99,2.99s5.1-1.01,6.99-3.04c1.9-2.03,2.85-4.78,2.85-8.25s-.95-6.29-2.85-8.25h0Z"/>
      <path class="cls-2" d="M65.55,29.63c2.03-4.18,4.79-7.4,8.3-9.65,3.5-2.25,7.41-3.38,11.72-3.38,3.73,0,6.95.74,9.65,2.22,2.7,1.48,4.79,3.47,6.27,5.98v-7.53h18.91v54.12h-18.91v-7.53c-1.48,2.51-3.59,4.5-6.32,5.98s-5.93,2.22-9.6,2.22c-4.31,0-8.22-1.12-11.72-3.38-3.51-2.25-6.27-5.48-8.3-9.7-2.03-4.21-3.04-9.12-3.04-14.71s1.01-10.48,3.04-14.66v.02ZM98.64,36.09c-1.9-1.99-4.23-2.99-6.99-2.99s-5.18.98-7.04,2.94c-1.87,1.96-2.8,4.71-2.8,8.25s.93,6.22,2.8,8.25,4.21,3.04,7.04,3.04,5.1-1,6.99-2.99c1.9-1.99,2.85-4.76,2.85-8.3s-.95-6.21-2.85-8.2h0Z"/>
      <path class="cls-2" d="M131.15,29.63c2.03-4.18,4.81-7.4,8.34-9.65,3.54-2.25,7.46-3.38,11.77-3.38,3.47,0,6.58.72,9.31,2.17s4.87,3.43,6.42,5.93V0h19v71.39h-19v-7.53c-1.48,2.51-3.57,4.5-6.27,5.98s-5.88,2.22-9.55,2.22c-4.31,0-8.22-1.12-11.72-3.38-3.51-2.25-6.27-5.48-8.3-9.7-2.03-4.21-3.04-9.12-3.04-14.71s1.01-10.48,3.04-14.66v.02ZM164.24,36.09c-1.9-1.99-4.23-2.99-6.99-2.99s-5.18.98-7.04,2.94c-1.87,1.96-2.8,4.71-2.8,8.25s.93,6.22,2.8,8.25,4.21,3.04,7.04,3.04,5.1-1,6.99-2.99c1.9-1.99,2.85-4.76,2.85-8.3s-.95-6.21-2.85-8.2h0Z"/>
      <path class="cls-2" d="M313.83,48.15h-35.79c.19,2.96,1.01,5.16,2.46,6.61,1.45,1.45,3.3,2.17,5.55,2.17,3.15,0,5.4-1.41,6.75-4.25h20.16c-.84,3.73-2.46,7.06-4.87,9.99-2.41,2.93-5.45,5.23-9.12,6.9-3.67,1.67-7.72,2.51-12.16,2.51-5.34,0-10.08-1.12-14.23-3.38-4.15-2.25-7.4-5.47-9.74-9.65-2.35-4.18-3.52-9.1-3.52-14.76s1.16-10.56,3.47-14.71c2.32-4.15,5.55-7.35,9.7-9.6,4.15-2.25,8.92-3.38,14.33-3.38s10.07,1.1,14.18,3.28c4.12,2.19,7.33,5.32,9.65,9.41s3.47,8.89,3.47,14.42c0,1.48-.1,2.96-.29,4.44h0ZM294.82,38.99c0-2.32-.77-4.13-2.32-5.45-1.54-1.32-3.47-1.98-5.79-1.98s-4.21.63-5.69,1.88-2.45,3.1-2.89,5.55h16.69Z"/>
      <path class="cls-2" d="M348.46,19.5c3.02-1.8,6.27-2.7,9.74-2.7v20.16h-5.31c-4.12,0-7.17.8-9.16,2.41-2,1.61-2.99,4.41-2.99,8.39v23.64h-18.91V17.28h18.91v9.55c2.12-3.09,4.69-5.53,7.72-7.33h0Z"/>
      <path class="cls-2" d="M275.6,85.07c1.19,1.36,1.79,3.21,1.79,5.54v10.38h-6.22v-9.55c0-1.02-.26-1.81-.79-2.4-.53-.58-1.24-.87-2.13-.87s-1.66.29-2.19.87-.79,1.38-.79,2.4v9.55h-6.22v-23.48h6.22v8.22c.55-.8,1.3-1.45,2.24-1.95s2.03-.75,3.25-.75c2.03,0,3.64.68,4.84,2.05h0Z"/>
      <path class="cls-2" d="M284.32,100.1c-1.41-.74-2.51-1.8-3.32-3.17-.8-1.37-1.21-2.99-1.21-4.85s.41-3.45,1.22-4.82c.81-1.37,1.92-2.43,3.33-3.17,1.41-.74,3-1.11,4.78-1.11s3.37.37,4.78,1.11,2.52,1.8,3.33,3.17c.81,1.38,1.22,2.98,1.22,4.82s-.41,3.45-1.22,4.84-1.93,2.45-3.35,3.19-3.01,1.11-4.79,1.11-3.37-.37-4.78-1.11h.01ZM291.27,94.85c.58-.64.87-1.57.87-2.78s-.29-2.13-.87-2.76c-.58-.63-1.3-.95-2.14-.95s-1.55.32-2.13.95c-.57.63-.86,1.55-.86,2.76s.27,2.16.82,2.79c.55.63,1.26.95,2.13.95s1.59-.32,2.17-.97h0Z"/>
      <path class="cls-2" d="M319.21,83.19v17.8h-6.25v-2.54c-.53.8-1.26,1.45-2.19,1.95s-2,.75-3.2.75c-2.07,0-3.71-.68-4.9-2.05-1.2-1.36-1.79-3.22-1.79-5.57v-10.34h6.19v9.55c0,1.02.27,1.81.81,2.4.54.58,1.25.87,2.14.87s1.63-.29,2.16-.87.79-1.38.79-2.4v-9.55h6.25-.01Z"/>
      <path class="cls-2" d="M326.05,100.4c-1.26-.54-2.25-1.28-2.98-2.22s-1.14-2-1.22-3.19h6.03c.08.57.35,1.02.79,1.33.44.32.99.48,1.65.48.51,0,.91-.11,1.21-.32s.44-.49.44-.83c0-.44-.24-.77-.73-.98-.49-.21-1.29-.44-2.41-.7-1.27-.25-2.33-.54-3.17-.86-.85-.32-1.58-.84-2.21-1.55-.62-.72-.94-1.69-.94-2.92,0-1.06.29-2.01.86-2.87s1.41-1.54,2.52-2.05c1.11-.51,2.45-.76,4.01-.76,2.33,0,4.16.57,5.49,1.71s2.1,2.64,2.32,4.51h-5.62c-.11-.57-.35-1.01-.75-1.32-.39-.31-.92-.46-1.57-.46-.51,0-.89.1-1.16.29-.26.19-.4.46-.4.79,0,.42.24.75.73.97.49.22,1.27.45,2.35.68,1.29.28,2.36.58,3.22.92.86.34,1.61.88,2.25,1.63.65.75.97,1.77.97,3.06,0,1.04-.3,1.97-.9,2.79-.6.83-1.46,1.48-2.57,1.95-1.11.48-2.42.71-3.92.71-1.61,0-3.04-.27-4.3-.81v.02Z"/>
      <path class="cls-2" d="M357.7,93.34h-11.77c.06.97.33,1.7.81,2.17s1.08.71,1.82.71c1.04,0,1.78-.47,2.22-1.4h6.63c-.28,1.23-.81,2.32-1.6,3.28-.79.96-1.79,1.72-3,2.27s-2.54.82-4,.82c-1.76,0-3.32-.37-4.68-1.11s-2.43-1.8-3.2-3.17c-.77-1.37-1.16-2.99-1.16-4.85s.38-3.47,1.14-4.84c.76-1.36,1.82-2.42,3.19-3.16,1.36-.74,2.93-1.11,4.71-1.11s3.31.36,4.66,1.08,2.41,1.75,3.17,3.09,1.14,2.92,1.14,4.74c0,.49-.03.97-.1,1.46l.02.02ZM351.44,90.32c0-.76-.25-1.36-.76-1.79s-1.14-.65-1.9-.65-1.39.21-1.87.62c-.49.41-.8,1.02-.95,1.82h5.49,0Z"/>
      <circle class="cls-1" cx="223.14" cy="40.02" r="17.01"/>
      <circle class="cls-3" cx="223.1" cy="40.93" r="7.34"/>
      <path class="cls-2" d="M223.14,12.19c3.02,0,5.92.46,8.71,1.37,2.78.91,5.33,2.21,7.63,3.88,1.11-1.51,2.64-2.76,4.59-3.76,1.95-.99,4.43-1.49,7.45-1.49v27.66c0,4.05-.72,7.91-2.15,11.57s-3.4,6.86-5.9,9.6-5.51,4.91-9,6.5c-3.5,1.59-7.27,2.38-11.33,2.38s-7.67-.76-11.09-2.27c-3.42-1.51-6.42-3.58-9-6.2s-4.61-5.68-6.08-9.18-2.21-7.23-2.21-11.21.73-7.71,2.21-11.21c1.47-3.5,3.5-6.56,6.08-9.18s5.58-4.69,9-6.2,7.11-2.27,11.09-2.27h0ZM223.14,27.93c-1.75,0-3.38.36-4.89,1.07s-2.82,1.66-3.93,2.85c-1.11,1.19-1.99,2.57-2.62,4.15-.64,1.58-.95,3.25-.95,4.99s.32,3.4.95,4.99c.64,1.58,1.51,2.97,2.62,4.16s2.42,2.12,3.93,2.79,3.14,1.01,4.89,1.01,3.38-.34,4.89-1.01,2.82-1.6,3.94-2.79c1.11-1.19,1.99-2.57,2.62-4.16.63-1.58.95-3.25.95-4.99s-.32-3.4-.95-4.99c-.64-1.58-1.51-2.97-2.62-4.15-1.11-1.19-2.43-2.14-3.94-2.85-1.51-.71-3.14-1.07-4.89-1.07Z"/>
      <path class="cls-2" d="M249.66,107.17s.01-18.13-15.32-27.48c0,0-3.6-3.07-12.61-2.67,0,0-17.09,1.66-24.88-10.83,0,0-.92,16.15,9.52,24.72,0,0,5.66,5.37,14.14,5.83,0,0,11.72.4,23.57,5.44,0,0,3.21,1.82,5.58,5h0Z"/>
    </g>
  </g>
</svg>